<?xml version="1.0" encoding="utf-8"?>
<!-- Generator: Adobe Illustrator 23.0.3, SVG Export Plug-In . SVG Version: 6.00 Build 0)  -->
<svg version="1.1" id="Layer_1" xmlns="http://www.w3.org/2000/svg" xmlns:xlink="http://www.w3.org/1999/xlink" x="0px" y="0px"
	 viewBox="0 0 70.9 70.9" style="enable-background:new 0 0 70.9 70.9;" xml:space="preserve">
<style type="text/css">
	.st0{display:none;}
	.st1{fill:#101920;}
</style>
<g class="st0">
</g>
<g class="st0">
</g>
<g>
	<rect x="38.6" y="70.9" class="st1" width="6.6" height="0"/>
	<path class="st1" d="M55.2,0H15.7C7,0,0,7,0,15.7v39.5c0,8.7,7,15.7,15.7,15.7h22.9V37.1h-4.5v-5.5h4.5v-1.3
		c0-4.7,1.1-8.3,3.4-10.8c2.3-2.5,5.5-3.7,9.8-3.7c1.2,0,2.4,0.1,3.6,0.2c1.2,0.1,2.2,0.3,3.2,0.4v6h-0.4c-0.6-0.2-1.4-0.4-2.5-0.6
		c-1.1-0.2-2.1-0.3-3-0.3c-2.8,0-4.8,0.6-6,1.9C45.6,24.7,45,27,45,30.3v1.3h10.9v5.5H45.2v33.8h10c8.7,0,15.7-7,15.7-15.7V15.7
		C70.9,7,63.9,0,55.2,0z"/>
</g>
<g>
</g>
<g>
</g>
<g>
</g>
<g>
</g>
<g>
</g>
<g>
</g>
</svg>
