<?xml version="1.0" encoding="utf-8"?>
<!-- Generator: Adobe Illustrator 23.0.3, SVG Export Plug-In . SVG Version: 6.00 Build 0)  -->
<svg version="1.1" id="Layer_1" xmlns="http://www.w3.org/2000/svg" xmlns:xlink="http://www.w3.org/1999/xlink" x="0px" y="0px"
	 viewBox="0 0 77.9 77.6" style="enable-background:new 0 0 77.9 77.6;" xml:space="preserve">
<style type="text/css">
	.st0{display:none;}
	.st1{fill:none;stroke:#101920;stroke-width:7;stroke-miterlimit:10;}
</style>
<g class="st0">
</g>
<g class="st0">
</g>
<path class="st1" d="M58.7,73.9H19.2c-8.7,0-15.7-7-15.7-15.7V19.2c0-8.7,7-15.7,15.7-15.7h39.5c8.7,0,15.7,7,15.7,15.7v39.1
	C74.4,66.9,67.4,73.9,58.7,73.9z"/>
<g>
	<path d="M64.4,22.2H64c-0.6-0.2-1.4-0.4-2.5-0.6c-1.1-0.2-2.1-0.3-3-0.3c-2.8,0-4.8,0.6-6,1.9c-1.2,1.3-1.8,3.5-1.8,6.8v1.3h10.9
		v5.5H51v33.8h-6.6V36.8H40v-5.5h4.5V30c0-4.7,1.1-8.3,3.4-10.8c2.3-2.5,5.5-3.7,9.8-3.7c1.2,0,2.4,0.1,3.6,0.2
		c1.2,0.1,2.2,0.3,3.2,0.4V22.2z"/>
</g>
<g>
</g>
<g>
</g>
<g>
</g>
<g>
</g>
<g>
</g>
<g>
</g>
</svg>
