<?xml version="1.0" encoding="utf-8"?>
<!-- Generator: Adobe Illustrator 23.0.3, SVG Export Plug-In . SVG Version: 6.00 Build 0)  -->
<svg version="1.1" xmlns="http://www.w3.org/2000/svg" xmlns:xlink="http://www.w3.org/1999/xlink" x="0px" y="0px"
	 viewBox="0 0 438.5 438.5" style="enable-background:new 0 0 438.5 438.5;" xml:space="preserve">
<style type="text/css">
	.st0{display:none;}
	.st1{display:inline;opacity:0.4;}
	.st2{fill:#0E181F;stroke:#000000;stroke-width:0.25;stroke-miterlimit:10;}
</style>
<g id="Capa_1" class="st0">
	<g class="st1">
		<path d="M384.5,223c-7.6-13.4-17.9-23.9-30.9-31.7c-13-7.8-27.3-11.7-42.7-11.7c-15.4,0-29.7,3.9-42.7,11.7
			c-13,7.8-23.3,18.4-30.9,31.7c-7.6,13.4-11.4,27.9-11.4,43.8c0,19,5.4,36.1,16.2,51.2c10.8,15.2,24.8,25.7,41.9,31.5
			c2,0.4,3.5,0.1,4.4-0.8c1-0.9,1.4-2,1.4-3.4c0-0.2,0-2.3-0.1-6.1c0-3.9-0.1-7.2-0.1-10.1l-2.5,0.5c-1.6,0.3-3.7,0.4-6.1,0.4
			c-2.5,0-5-0.3-7.7-0.8c-2.7-0.5-5.1-1.6-7.4-3.4c-2.3-1.8-3.9-4.1-4.9-7l-1.1-2.6c-0.7-1.7-1.9-3.7-3.5-5.8
			c-1.6-2.1-3.2-3.6-4.8-4.3l-0.8-0.6c-0.5-0.4-1-0.8-1.4-1.4c-0.4-0.5-0.8-1.1-1-1.6c-0.2-0.5,0-1,0.6-1.3c0.6-0.3,1.7-0.5,3.2-0.5
			l2.2,0.3c1.5,0.3,3.3,1.2,5.5,2.7c2.2,1.5,4,3.5,5.4,5.9c1.7,3.1,3.7,5.5,6.1,7.1c2.4,1.6,4.8,2.4,7.3,2.4c2.4,0,4.5-0.2,6.3-0.6
			c1.8-0.4,3.4-0.9,5-1.7c0.7-5.1,2.5-9,5.4-11.7c-4.2-0.5-8-1.1-11.3-2c-3.4-0.9-6.8-2.4-10.4-4.4c-3.6-2-6.6-4.6-8.9-7.6
			c-2.4-3-4.3-7-5.8-11.9c-1.5-4.9-2.3-10.6-2.3-17c0-9.2,2.9-17,8.7-23.4c-2.7-6.9-2.5-14.6,0.8-23.2c2.1-0.7,5.3-0.2,9.5,1.5
			c4.2,1.7,7.3,3.2,9.2,4.4c2,1.2,3.5,2.2,4.7,3.1c6.9-2,14-3,21.3-3c7.3,0,14.4,1,21.3,3l4.2-2.7c2.9-1.8,6.3-3.5,10.2-5
			c3.9-1.5,6.9-1.9,9-1.2c3.3,8.6,3.6,16.3,0.9,23.2c5.8,6.4,8.7,14.2,8.7,23.4c0,6.4-0.8,12.1-2.3,17.1c-1.5,5-3.5,8.9-5.9,11.9
			c-2.4,3-5.4,5.5-9,7.5c-3.6,2-7.1,3.5-10.4,4.4c-3.4,0.9-7.1,1.6-11.3,2c3.8,3.4,5.8,8.8,5.8,16.1v23.9c0,1.4,0.5,2.5,1.4,3.4
			c0.9,0.9,2.4,1.2,4.4,0.8c17.1-5.8,31.1-16.3,41.9-31.5c10.8-15.2,16.2-32.3,16.2-51.2C395.9,250.9,392.1,236.3,384.5,223z"/>
	</g>
</g>
<g id="DrawCat">
	<path class="st2" d="M219.3,0C98.2,0,0,100.6,0,224.7c0,41.4,11.3,82.4,32.4,117.7c20.7,34.3,50.3,62.7,85.2,81.5
		c10.4,5.6,21.3,10,32.3,14.2c1.3,0.5,3,0.9,3.9-0.2c-1,0-2,0-3,0c6.6-0.7,10.6-6.1,10.6-12.8c0-1.3,0-2.5,0-3.8l0-10.4
		c0-3.9,0-7.9,0-11.8c0-3.4,0-6.9,0-10.3c0-2,0-4,0-6c0-0.2,0-0.4,0-0.6c0,0.1-4.3,0.9-4.7,0.9c-6.7,1.2-13.6,1.5-20.4,1.2
		c-3.4-0.1-6.8-0.5-10.2-0.9c-3.3-0.4-6.6-0.9-9.8-1.6c-4.6-1-9.1-3.2-13.1-5.7c-2.2-1.4-4.2-3-6.2-4.7c-4.8-4.1-7.9-9.9-10.5-15.7
		c-1.4-3.1-2.6-6.3-4.1-9.5c-1.3-2.8-2.9-5.6-4.5-8.2c-1.7-2.7-3.6-5.4-5.6-7.9c-1.9-2.4-3.8-4.7-6.1-6.6c-1.9-1.6-4-2.8-5.9-4.4
		c-2.8-2.3-5.8-5.1-7.5-8.5c-0.4-0.9-0.6-2,0.2-2.8c1.6-1.6,4.4-1.9,6.5-2c3.8-0.3,7.5,0.5,11.1,1.5c3.1,0.9,5.9,2.5,8.6,4.3
		c2.5,1.6,4.9,3.4,7.1,5.4c2.4,2.1,4.7,4.3,6.6,6.9c3.5,4.6,6.4,9.7,9.8,14.3c3.7,4.9,8,9.3,13.4,12.3c2.5,1.4,5.1,2.8,7.9,3.7
		c3.2,1,6.5,1.2,9.8,1.2c4.4,0.1,8.9-0.3,13.3-1.2c3.7-0.7,7.7-0.7,11-2.5c3.4-1.8,4.5-5.2,5.3-8.8c1.1-4.6,2.9-9,5.2-13.1
		c1.1-2.1,2.3-4.1,3.6-6c0.9-1.4,2-2.5,2.8-3.9c1.2-2.1,0.7-2.2-1.5-2.5c-4-0.6-7.9-1.2-11.9-2c-7.9-1.5-15.7-3.5-23.2-6.3
		c-20.3-7.4-38.6-20.7-49.6-39.9c-12.1-21-16.1-46.4-14.4-70.5c1.5-22.5,9.6-42.3,23.1-59.9c0.3-0.4-1.5-5.1-1.6-5.6
		c-1.3-5.1-2.2-10.3-2.8-15.5c-0.9-9.7,0-19.7,2.5-29.1c2.3-8.6,4.5-14.3,14.2-12.7c6.6,1.1,12.8,3.2,18.9,6
		c7.1,3.2,14.3,6.5,20.8,10.8c1.5,1,3.1,1.8,4.7,2.7c0.7,0.4,1.4,0.9,2,1.4c0.9,0.7,1.8,1.5,2.7,2.2c0.4,0.3,1.8,1.8,2.4,1.7
		c26.1-6.4,52.6-9.4,79.4-6.9c11,1,22.2,3.1,32.6,6.9c0.8,0.3,0.5-0.2,1.2-0.8c1-0.8,3.1-2.1,5.6-3.7c4.7-3.1,12.9-8.4,20.2-11.6
		c6.9-3,15.2-6.9,21.9-8.1c2.8-0.5,5.7-0.7,8.6-0.5c2.4,0.2,3.8,0,4.7,2.5c6.4,17.8,8.6,37.8,2.7,56c-1.6,5.1,1,8,3.6,12.1
		c13.6,21.6,19.8,47.7,17.7,73.2c-1.2,14.7-4.9,29.2-11.7,42.3c-10.3,20.1-27.6,36.2-47.8,45.4c-10.4,4.8-21.6,7.3-32.8,9.2
		c-2.9,0.5-6.3,0.6-9.1,1.6c1.1,0.8,1.6,1.9,2.3,3c4.2,7.1,7.9,13.8,9.8,22c1.9,8.1,2.6,16.4,2.8,24.8c0.4,18.6,0.3,37.2,0.6,55.8
		c0.1,7.2,1.4,13,9.5,14.1c-1.5,0-2.9,0-4.4,0c10.8,2,21.2-3.5,30.8-7.9c9-4.1,17.6-8.9,26-14.2c16.6-10.6,31.7-23.4,45-38
		c26.9-29.7,45.7-66.6,53.8-106.3c3.1-15.3,4.7-30.9,4.7-46.5C438.5,100.6,340.4,0,219.3,0z"/>
</g>
</svg>
