<?xml version="1.0" encoding="utf-8"?>
<!-- Generator: Adobe Illustrator 23.0.3, SVG Export Plug-In . SVG Version: 6.00 Build 0)  -->
<svg version="1.1" id="Layer_1" xmlns="http://www.w3.org/2000/svg" xmlns:xlink="http://www.w3.org/1999/xlink" x="0px" y="0px"
	 viewBox="0 0 123.4 123.4" style="enable-background:new 0 0 123.4 123.4;" xml:space="preserve">
<style type="text/css">
	.st0{display:none;}
	.st1{fill:#101920;}
	.st2{fill:none;stroke:#101920;stroke-width:10;stroke-miterlimit:10;}
</style>
<g class="st0">
</g>
<g>
	<path class="st1" d="M38.1,27.7c0.1,3.1-3,5.6-8,5.6c-4.5,0-7.6-2.5-7.6-5.6c0-3.2,3.3-5.7,7.9-5.7C35.1,21.9,38.1,24.4,38.1,27.7z
		 M24,92.3V41.9h12.6v50.5H24z"/>
	<path class="st1" d="M47.6,55.5c0-5.2-0.1-9.5-0.6-13.7h11.2l0.7,8.3h0.3c3.4-4.8,11.5-9.5,23-9.5c9.6,0,24.6,4.2,24.6,21.5v30.1
		H94.2V63.2c0-8.1-4.2-14.9-16.1-14.9c-8.3,0-14.8,4.3-17,9.4c-0.6,1.1-0.9,2.7-0.9,4.3v30.4H47.6V55.5z"/>
</g>
<g>
	<path class="st2" d="M104.2,5h-85C11.4,5,5,11.4,5,19.2v85c0,7.8,6.4,14.2,14.2,14.2h85c7.8,0,14.2-6.4,14.2-14.2v-85
		C118.4,11.4,112,5,104.2,5z"/>
</g>
<g>
</g>
<g>
</g>
<g>
</g>
<g>
</g>
<g>
</g>
<g>
</g>
</svg>
