<?xml version="1.0" encoding="utf-8"?>
<!-- Generator: Adobe Illustrator 23.0.3, SVG Export Plug-In . SVG Version: 6.00 Build 0)  -->
<svg version="1.1" id="Layer_1" xmlns="http://www.w3.org/2000/svg" xmlns:xlink="http://www.w3.org/1999/xlink" x="0px" y="0px"
	 viewBox="0 0 113.4 113.4" style="enable-background:new 0 0 113.4 113.4;" xml:space="preserve">
<style type="text/css">
	.st0{display:none;}
	.st1{fill:#101920;}
</style>
<g class="st0">
</g>
<path class="st1" d="M99.2,0h-85C6.4,0,0,6.4,0,14.2v85c0,7.8,6.4,14.2,14.2,14.2h85c7.8,0,14.2-6.4,14.2-14.2v-85
	C113.4,6.4,107,0,99.2,0z M31.7,87.3H19V36.9h12.6V87.3z M25.1,28.3c-4.5,0-7.6-2.5-7.6-5.6c0-3.2,3.3-5.7,7.9-5.7
	c4.7,0,7.8,2.5,7.8,5.7C33.3,25.8,30.1,28.3,25.1,28.3z M101.8,87.3H89.2V58.2c0-8.1-4.2-14.9-16.1-14.9c-8.3,0-14.8,4.3-17,9.4
	c-0.6,1.1-0.9,2.7-0.9,4.3v30.4H42.6V50.5c0-5.2-0.1-9.5-0.6-13.7h11.2l0.7,8.3h0.3c3.4-4.8,11.5-9.5,23-9.5
	c9.6,0,24.6,4.2,24.6,21.5V87.3z"/>
<g>
</g>
<g>
</g>
<g>
</g>
<g>
</g>
<g>
</g>
<g>
</g>
</svg>
