<?xml version="1.0" encoding="utf-8"?>
<!-- Generator: Adobe Illustrator 23.0.3, SVG Export Plug-In . SVG Version: 6.00 Build 0)  -->
<svg version="1.1" id="Layer_1" xmlns="http://www.w3.org/2000/svg" xmlns:xlink="http://www.w3.org/1999/xlink" x="0px" y="0px"
	 viewBox="0 0 81.66 54.72" style="enable-background:new 0 0 81.66 54.72;" xml:space="preserve">
<style type="text/css">
	.st0{fill:#101920;}
</style>
<path class="st0" d="M36.51,54.72H25.06l0.79-2.16l-2.02-8.35l-1.08-1.08h-9l-1.08,1.08l-2.02,8.35l0.79,2.16H0l1.8-3.67L13.03,3.17
	L12.02,0h12.46l-1.01,3.17l11.23,47.88L36.51,54.72z M15.63,33.92h5.33l0.86-0.79l-3.53-17.5l-3.53,17.5L15.63,33.92z"/>
<path class="st0" d="M68.55,54.72l0.79-2.38l-8.28-20.02l-4.61,7.99V51.2l1.15,3.53H46.3l1.15-3.53V3.53L46.3,0h11.31l-1.15,3.53
	v19.59l12.1-21.53L67.83,0h12.82l-3.46,4.39L66.82,22.32L78.35,50.4l3.31,4.32H68.55z"/>
<path class="st0" d="M27.6,0h11.3l-1.15,3.53v17.93l1.08,1.08h6.98l1.08-1.08V3.53L45.82,0h11.45l-1.15,3.53v47.74l1.15,3.46H45.82
	l1.08-3.46V32.76l-1.08-1.08h-6.98l-1.08,1.08v18.51l1.15,3.46H27.6l1.15-3.46V3.53L27.6,0z"/>
</svg>
