<?xml version="1.0" encoding="utf-8"?>
<!-- Generator: Adobe Illustrator 23.0.3, SVG Export Plug-In . SVG Version: 6.00 Build 0)  -->
<svg version="1.1" id="Layer_1" xmlns="http://www.w3.org/2000/svg" xmlns:xlink="http://www.w3.org/1999/xlink" x="0px" y="0px"
	 viewBox="0 0 123.33 123.33" style="enable-background:new 0 0 123.33 123.33;" xml:space="preserve">
<style type="text/css">
	.st0{fill:#101920;}
	.st1{fill:#FFFFFF;}
</style>
<g>
	<g>
		<path class="st0" d="M107.7,123.33H15.63C7,123.33,0,116.33,0,107.7V15.63C0,7,7,0,15.63,0h92.07c8.63,0,15.63,7,15.63,15.63
			v92.07C123.33,116.33,116.33,123.33,107.7,123.33z"/>
	</g>
	<g>
		<path class="st1" d="M55.62,88.74H44.17l0.79-2.16l-2.02-8.35l-1.08-1.08h-9l-1.08,1.08l-2.02,8.35l0.79,2.16H19.11l1.8-3.67
			l11.23-47.88l-1.01-3.17h12.46l-1.01,3.17l11.23,47.88L55.62,88.74z M34.74,67.93h5.33l0.86-0.79l-3.53-17.5l-3.53,17.5
			L34.74,67.93z"/>
	</g>
	<g>
		<path class="st1" d="M87.66,88.74l0.79-2.38l-8.28-20.02l-4.61,7.99v10.87l1.15,3.53H65.41l1.15-3.53V37.54l-1.15-3.53h11.31
			l-1.15,3.53v19.59l12.1-21.53l-0.72-1.58h12.82l-3.46,4.39L85.93,56.34l11.52,28.08l3.31,4.32H87.66z"/>
	</g>
	<g>
		<path class="st1" d="M46.71,34.02h11.3l-1.15,3.53v17.93l1.08,1.08h6.98l1.08-1.08V37.54l-1.08-3.53h11.45l-1.15,3.53v47.74
			l1.15,3.46H64.93l1.08-3.46V66.78l-1.08-1.08h-6.98l-1.08,1.08v18.51l1.15,3.46h-11.3l1.15-3.46V37.54L46.71,34.02z"/>
	</g>
</g>
</svg>
