<?xml version="1.0" encoding="utf-8"?>
<!-- Generator: Adobe Illustrator 23.0.3, SVG Export Plug-In . SVG Version: 6.00 Build 0)  -->
<svg version="1.1" id="Layer_1" xmlns="http://www.w3.org/2000/svg" xmlns:xlink="http://www.w3.org/1999/xlink" x="0px" y="0px"
	 viewBox="0 0 134.38 134.38" style="enable-background:new 0 0 134.38 134.38;" xml:space="preserve">
<style type="text/css">
	.st0{fill:#FFFFFF;}
	.st1{fill:#111920;}
</style>
<g>
	<g>
		<path class="st0" d="M111.45,129.88H22.93c-10.18,0-18.43-8.25-18.43-18.43V22.93C4.5,12.75,12.75,4.5,22.93,4.5h88.51
			c10.18,0,18.43,8.25,18.43,18.43v88.51C129.88,121.63,121.63,129.88,111.45,129.88z"/>
		<path class="st1" d="M111.45,134.38H22.93C10.29,134.38,0,124.09,0,111.45V22.93C0,10.29,10.29,0,22.93,0h88.51
			c12.65,0,22.93,10.29,22.93,22.93v88.51C134.38,124.09,124.09,134.38,111.45,134.38z M22.93,9C15.25,9,9,15.25,9,22.93v88.51
			c0,7.68,6.25,13.93,13.93,13.93h88.51c7.68,0,13.93-6.25,13.93-13.93V22.93c0-7.68-6.25-13.93-13.93-13.93H22.93z"/>
	</g>
	<g>
	</g>
	<g>
		<path class="st1" d="M61.14,94.55H49.69l0.79-2.16l-2.02-8.35l-1.08-1.08h-9l-1.08,1.08l-2.02,8.35l0.79,2.16H24.64l1.8-3.67
			L37.67,43l-1.01-3.17h12.46L48.11,43l11.23,47.88L61.14,94.55z M40.26,73.74h5.33l0.86-0.79l-3.53-17.5l-3.53,17.5L40.26,73.74z"
			/>
	</g>
	<g>
		<path class="st1" d="M93.19,94.55l0.79-2.38L85.7,72.16l-4.61,7.99v10.87l1.15,3.53H70.94l1.15-3.53V43.36l-1.15-3.53h11.31
			l-1.15,3.53v19.59l12.1-21.53l-0.72-1.58h12.82l-3.46,4.39L91.46,62.15l11.52,28.08l3.31,4.32H93.19z"/>
	</g>
	<g>
		<path class="st1" d="M52.23,39.83h11.3l-1.15,3.53v17.93l1.08,1.08h6.98l1.08-1.08V43.36l-1.08-3.53H81.9l-1.15,3.53V91.1
			l1.15,3.46H70.45l1.08-3.46V72.59l-1.08-1.08h-6.98l-1.08,1.08V91.1l1.15,3.46h-11.3l1.15-3.46V43.36L52.23,39.83z"/>
	</g>
</g>
</svg>
